<svg width="48" height="48" viewBox="0 0 48 48" fill="none" xmlns="http://www.w3.org/2000/svg">
  <rect width="48" height="48" rx="10" fill="#3d4a36"/>
  <g transform="translate(12, 12)">
    <path d="M20 14H18V10H16V14H14V10H12V14H10V10H8V14H4V10C4 8.89543 4.89543 8 6 8H18C19.1046 8 20 8.89543 20 10V14Z" fill="white"/>
    <path d="M4 14V16C4 17.1046 4.89543 18 6 18H8C8 19.1046 8.89543 20 10 20C11.1046 20 12 19.1046 12 18H12C12 19.1046 12.8954 20 14 20C15.1046 20 16 19.1046 16 18H18C19.1046 18 20 17.1046 20 16V14H4Z" fill="white"/>
    <circle cx="10" cy="19" r="1.5" fill="#3d4a36"/>
    <circle cx="14" cy="19" r="1.5" fill="#3d4a36"/>
  </g>
</svg>
